<?xml version="1.0" encoding="UTF-8"?>
<!-- Generated by Pixelmator Pro 3.7 -->
<svg width="600" height="600" viewBox="0 0 600 600" xmlns="http://www.w3.org/2000/svg">
    <path id="Shape" fill="#e25515" fill-rule="evenodd" stroke="none" d="M 335 500.760834 L 335 139.240295 L 324.362701 123.870117 C 318.512177 115.416565 308.34201 100.917664 301.762268 91.650452 C 294.104706 80.865051 290.145264 74.454773 290.760834 73.839172 C 291.362213 73.237793 312.659729 73.014038 347.611267 73.241943 C 396.512085 73.560852 404.250183 73.819397 409.5 75.309937 C 412.799988 76.246887 418.424988 78.20459 422 79.6604 C 425.575012 81.116211 432.099976 84.67218 436.5 87.562561 C 440.900024 90.452942 448.109802 96.571289 452.521851 101.158875 C 456.933838 105.746521 465.721191 115.349976 472.049255 122.5 C 478.377319 129.650024 487.592468 140.14856 492.527405 145.830078 C 497.462341 151.511597 501.639587 156.768433 501.810181 157.511902 C 502.062073 158.609619 497.832886 158.927917 479.310181 159.205444 C 458.196777 159.521729 456.065308 159.720764 450.656311 161.880493 C 447.442322 163.163818 442.49231 166.095642 439.656311 168.395691 C 436.820374 170.695801 433.037476 174.748535 431.25 177.401855 C 429.462524 180.055115 428 183.095276 428 184.157715 C 428 185.333252 439.254211 197.714111 456.75 215.785767 C 472.5625 232.118713 494.981079 255.161072 506.569031 266.991028 C 518.156982 278.820984 535.031982 296.054871 544.069031 305.288574 C 553.106079 314.522308 563.803528 325.662476 567.841187 330.044525 L 575.182373 338.011841 L 560.506714 353.927979 C 552.43512 362.681824 538.464539 377.773041 529.460999 387.46402 C 520.457397 397.154968 507.238831 411.382111 500.086304 419.079865 C 492.933838 426.777649 481.449402 439.143951 474.565308 446.560577 C 467.681274 453.977203 456.424622 466.121063 449.550537 473.546936 C 442.676514 480.972809 429.146667 495.57016 419.484253 505.985535 C 409.821838 516.400879 395.522583 531.835693 387.70813 540.285156 C 379.893677 548.734619 365.47998 564.252563 355.677734 574.769653 C 343.451965 587.886963 336.52301 594.536621 333.61203 595.945801 C 329.570343 597.902344 327.643921 598 293.100952 598 C 272.335754 598 256.97583 597.61969 257.166656 597.110229 C 257.350006 596.620911 261.572571 591.333374 266.550201 585.360229 C 271.527802 579.387085 282.327789 566.184326 290.550201 556.020752 C 298.772583 545.857178 312.137512 529.265869 320.25 519.151123 Z M 235.844574 555.123108 C 232.075684 558.108093 232.075684 558.108093 233.535706 553.304077 C 234.338715 550.661865 236.102234 544.962585 237.454681 540.639038 C 238.807098 536.315552 240.643036 528.415955 241.534515 523.084351 C 242.426025 517.752747 243.220337 506.890167 243.299652 498.945251 C 243.413879 487.503937 242.984833 482.290222 241.236389 473.873657 C 240.022278 468.029144 237.425385 459.029144 235.465576 453.873657 C 233.505737 448.71814 230.288055 441.350006 228.315216 437.5 C 226.342346 433.649994 222.70459 427.350006 220.231354 423.5 C 217.758087 419.649994 212.891968 413.086304 209.417786 408.914032 C 205.943573 404.74176 199.59082 398.628967 195.300537 395.330048 C 191.010254 392.031158 184.121429 387.067108 179.992065 384.298889 C 175.862701 381.53064 168.887695 377.467621 164.492065 375.269928 C 160.096436 373.072235 152.450012 369.800995 147.5 368.000488 C 142.549988 366.200012 134.674988 363.087128 130 361.082977 C 125.325012 359.078796 117.526947 355.038574 112.67099 352.104675 C 107.815033 349.170776 100.615051 344.184692 96.67099 341.024506 C 92.726959 337.864319 85.796356 331.50351 81.269684 326.889343 C 76.743027 322.275208 69.88475 314.225006 66.029083 309 C 62.173416 303.775024 56.089417 293.650024 52.509094 286.5 C 48.928757 279.349976 44.459396 268.743103 42.577164 262.929138 C 40.694931 257.115112 38.424393 248.821533 37.531525 244.498901 C 36.638657 240.17627 36.041306 235.79834 36.204071 234.770203 C 36.457825 233.167297 37.507965 233.612427 43.572021 237.893188 C 47.461624 240.638977 54.661621 245.226013 59.572021 248.08667 C 64.482407 250.947266 72.550003 255.188293 77.5 257.511108 C 82.450012 259.833923 90.774994 263.425476 96 265.492371 C 101.225006 267.559204 109.325012 270.559753 114 272.160156 C 118.674988 273.76062 127.863434 276.430115 134.418762 278.092407 C 140.974091 279.7547 150.649109 282.005554 155.918762 283.094299 C 161.188446 284.182983 166.754211 284.944702 168.287109 284.786865 C 170.754547 284.532898 169.974701 283.81189 161.487457 278.5 C 156.214752 275.200012 145.285553 268.166077 137.200348 262.869019 C 129.115173 257.572021 119.51886 251.021545 115.875214 248.312378 C 112.231598 245.60321 105.706573 240.422546 101.375214 236.799683 C 97.043854 233.17688 89.611084 226.227417 84.857971 221.356384 C 80.104858 216.485352 73.328506 208.88269 69.799408 204.461609 C 66.270325 200.040466 60.744507 192.165466 57.519821 186.961609 C 54.295151 181.75769 49.463181 172.916565 46.782104 167.314636 C 44.101044 161.712646 40.53006 153.387634 38.846573 148.814636 C 37.163101 144.241577 34.732925 136.900024 33.446198 132.5 C 32.159485 128.099976 29.957581 118.875 28.553101 112 C 26.632965 102.60083 25.716492 93.711426 24.858612 76.1651 C 24.231125 63.330872 23.945236 41.379395 24.223282 27.384033 C 24.501343 13.388611 25.061447 1.614319 25.467957 1.218933 C 25.874466 0.823486 27.847977 2.511108 29.853531 4.969177 C 31.859085 7.427246 38.825775 15.417847 45.335068 22.726196 C 51.84436 30.034485 62.644363 41.162109 69.335068 47.454285 C 76.025787 53.74646 86.450012 63.019287 92.5 68.060547 C 98.549988 73.101807 109.350006 81.376892 116.5 86.449585 C 123.649994 91.522339 136.024994 99.719727 144 104.666016 C 151.975006 109.612305 171.7724 121.687622 187.994202 131.5 C 204.216003 141.312378 221.766022 152.40979 226.994202 156.160889 C 232.222382 159.912048 239.769135 165.813843 243.76474 169.276001 C 247.760345 172.73822 253.986908 178.929993 257.601563 183.035461 C 261.216187 187.140991 266.203003 193.550903 268.68338 197.279724 C 271.163757 201.008606 274.909119 207.53363 277.006439 211.779724 C 279.10376 216.025879 281.947662 222.875 283.326233 227 C 284.704803 231.125 286.432861 238.099976 287.166351 242.5 C 288.218323 248.810425 288.5 272.57019 288.5 355 C 288.5 449.466736 288.333771 460.488647 286.768524 469.797241 C 285.816193 475.460693 283.680908 484.142181 282.023468 489.089386 C 280.365997 494.036591 277.170288 501.777832 274.921906 506.292145 C 272.673492 510.806458 268.317383 518.288086 265.241638 522.91803 C 262.165924 527.547974 255.141296 536.016479 249.631439 541.737061 C 244.121552 547.457642 237.91745 553.481323 235.844574 555.123108 Z M 505.082092 337.854218 C 411.01886 243.029724 383.268738 215.331116 382.729187 215.124695 C 382.092957 214.881287 383.01001 459.099396 383.039124 463.110229 C 383.078186 468.5 505.082092 337.854218 505.082092 337.854218 Z"/>
</svg>
